<svg width="40" height="40" viewBox="0 0 40 40" fill="none" xmlns="http://www.w3.org/2000/svg">
<g id="mage:instagram-circle">
<path id="Vector" d="M22.6833 20.405C22.6733 20.933 22.5067 21.4461 22.2046 21.8793C21.9026 22.3124 21.4788 22.6462 20.9869 22.8382C20.495 23.0303 19.9571 23.072 19.4415 22.958C18.9259 22.844 18.4557 22.5795 18.0906 22.198C17.7255 21.8165 17.4818 21.3351 17.3906 20.815C17.2993 20.2949 17.3645 19.7594 17.578 19.2764C17.7914 18.7933 18.1435 18.3846 18.5895 18.1019C19.0355 17.8191 19.5554 17.6752 20.0833 17.6883C20.7848 17.7143 21.4486 18.0125 21.934 18.5196C22.4194 19.0268 22.6881 19.703 22.6833 20.405Z" fill="white"/>
<path id="Vector_2" d="M24.605 12.0552H15.5633C14.6687 12.0552 13.8107 12.4106 13.178 13.0432C12.5454 13.6758 12.19 14.5338 12.19 15.4285V24.6735C12.19 25.1165 12.2773 25.5552 12.4468 25.9644C12.6163 26.3737 12.8648 26.7456 13.178 27.0588C13.4913 27.3721 13.8631 27.6205 14.2724 27.7901C14.6817 27.9596 15.1203 28.0468 15.5633 28.0468H24.605C25.048 28.0468 25.4866 27.9596 25.8959 27.7901C26.3052 27.6205 26.6771 27.3721 26.9903 27.0588C27.3036 26.7456 27.552 26.3737 27.7216 25.9644C27.8911 25.5552 27.9783 25.1165 27.9783 24.6735V15.4452C27.9801 15.0009 27.8942 14.5607 27.7255 14.1497C27.5568 13.7387 27.3086 13.365 26.9952 13.0501C26.6819 12.7351 26.3094 12.4852 25.8993 12.3144C25.4891 12.1437 25.0493 12.0556 24.605 12.0552ZM20.0833 24.9268C19.1883 24.947 18.3075 24.7001 17.5534 24.2175C16.7993 23.735 16.2061 23.0386 15.8495 22.2174C15.4929 21.3962 15.389 20.4874 15.5512 19.6069C15.7134 18.7265 16.1342 17.9143 16.76 17.274C17.3858 16.6338 18.1882 16.1945 19.0647 16.0123C19.9413 15.8301 20.8522 15.9131 21.6813 16.2509C22.5105 16.5887 23.2201 17.1659 23.7198 17.9088C24.2195 18.6516 24.4864 19.5266 24.4867 20.4218C24.4939 21.0069 24.3857 21.5877 24.1683 22.1309C23.9508 22.6741 23.6283 23.1691 23.2193 23.5876C22.8103 24.006 22.3228 24.3397 21.7847 24.5695C21.2466 24.7993 20.6684 24.9208 20.0833 24.9268ZM24.9767 15.9185C24.8667 15.9185 24.7578 15.8966 24.6564 15.854C24.555 15.8114 24.4631 15.7491 24.3862 15.6705C24.3092 15.592 24.2486 15.4989 24.2081 15.3966C24.1675 15.2944 24.1478 15.1851 24.15 15.0752C24.15 14.8515 24.2389 14.637 24.397 14.4789C24.5552 14.3207 24.7697 14.2318 24.9933 14.2318C25.217 14.2318 25.4315 14.3207 25.5897 14.4789C25.7478 14.637 25.8367 14.8515 25.8367 15.0752C25.84 15.1942 25.8175 15.3126 25.7708 15.4222C25.7242 15.5318 25.6543 15.63 25.5662 15.71C25.478 15.7901 25.3736 15.8502 25.26 15.8862C25.1465 15.9222 25.0265 15.9332 24.9083 15.9185H24.9767Z" fill="white"/>
<path id="Vector_3" d="M20.0833 3.33322C15.6631 3.31112 11.4151 5.04587 8.27382 8.15584C5.13258 11.2658 3.35544 15.4963 3.33334 19.9165C3.31124 24.3368 5.04599 28.5848 8.15597 31.7261C11.2659 34.8673 15.4964 36.6445 19.9167 36.6666C22.1054 36.6775 24.2748 36.2572 26.3011 35.4298C28.3274 34.6023 30.1708 33.3838 31.7262 31.8439C33.2816 30.304 34.5184 28.4728 35.3661 26.4549C36.2138 24.437 36.6557 22.2719 36.6667 20.0832C36.6776 17.8945 36.2574 15.7251 35.4299 13.6988C34.6024 11.6725 33.3839 9.82908 31.844 8.2737C30.3041 6.71831 28.473 5.48147 26.4551 4.63378C24.4371 3.78609 22.272 3.34416 20.0833 3.33322ZM30.205 24.5032C30.2097 25.2509 30.0658 25.9921 29.7819 26.6839C29.4979 27.3756 29.0795 28.0041 28.5509 28.5329C28.0222 29.0617 27.3938 29.4803 26.7022 29.7645C26.0106 30.0486 25.2694 30.1926 24.5217 30.1882H15.6483C14.9006 30.1929 14.1594 30.049 13.4677 29.7651C12.776 29.4811 12.1475 29.0627 11.6187 28.5341C11.0899 28.0054 10.6713 27.3771 10.3871 26.6854C10.103 25.9938 9.95891 25.2526 9.96334 24.5049V15.6299C9.95869 14.8822 10.1025 14.141 10.3865 13.4492C10.6704 12.7575 11.0888 12.129 11.6175 11.6002C12.1461 11.0714 12.7745 10.6528 13.4661 10.3686C14.1578 10.0845 14.8989 9.94046 15.6467 9.94488H24.5217C25.2693 9.94046 26.0103 10.0844 26.7018 10.3685C27.3933 10.6525 28.0216 11.071 28.5503 11.5996C29.0789 12.1283 29.4973 12.7565 29.7814 13.4481C30.0654 14.1396 30.2094 14.8806 30.205 15.6282V24.5032Z" fill="white"/>
</g>
</svg>
