<svg width="40" height="40" viewBox="0 0 40 40" fill="none" xmlns="http://www.w3.org/2000/svg">
<g id="mage:tiktok-circle">
<path id="Vector" d="M20 3.3335C16.7036 3.3335 13.4813 4.31098 10.7405 6.14234C7.99966 7.97369 5.86346 10.5767 4.60199 13.6221C3.34053 16.6675 3.01048 20.0187 3.65357 23.2517C4.29665 26.4847 5.884 29.4544 8.21487 31.7853C10.5457 34.1162 13.5155 35.7035 16.7485 36.3466C19.9815 36.9897 23.3326 36.6596 26.378 35.3982C29.4235 34.1367 32.0265 32.0005 33.8578 29.2597C35.6892 26.5188 36.6667 23.2965 36.6667 20.0002C36.6622 15.5812 34.9049 11.3446 31.7802 8.21992C28.6556 5.09527 24.4189 3.33791 20 3.3335ZM29.8983 16.1885V17.2652C29.8983 17.3476 29.8819 17.4291 29.8498 17.5051C29.8178 17.581 29.7709 17.6497 29.7119 17.7072C29.6528 17.7647 29.5828 17.8098 29.5061 17.8398C29.4293 17.8698 29.3474 17.8841 29.265 17.8818C27.5053 17.7575 25.8217 17.1149 24.4267 16.0352V23.9152C24.4263 24.7873 24.2522 25.6506 23.9145 26.4547C23.5768 27.2588 23.0824 27.9876 22.46 28.5985C21.8325 29.2254 21.0862 29.7208 20.2649 30.0556C19.4435 30.3904 18.5636 30.558 17.6767 30.5485C15.8931 30.5459 14.1812 29.8461 12.9067 28.5985C12.0956 27.7808 11.5115 26.7661 11.2116 25.6542C10.9118 24.5422 10.9066 23.3714 11.1967 22.2568C11.4617 21.1868 11.9967 20.2035 12.7517 19.4018C13.3147 18.7136 14.0244 18.16 14.829 17.7814C15.6335 17.4027 16.5125 17.2087 17.4017 17.2135H18.7683V20.0518C18.7689 20.1343 18.7519 20.2159 18.7185 20.2912C18.6851 20.3666 18.636 20.434 18.5745 20.4888C18.513 20.5437 18.4405 20.5849 18.3618 20.6095C18.2832 20.6342 18.2002 20.6418 18.1183 20.6318C17.3248 20.3935 16.4697 20.4725 15.7334 20.8523C14.997 21.2321 14.4369 21.883 14.1711 22.6677C13.9052 23.4525 13.9545 24.3098 14.3084 25.0589C14.6623 25.8081 15.2933 26.3905 16.0683 26.6835C16.5183 26.9418 17.0217 27.0935 17.5383 27.1285C17.9383 27.1452 18.3383 27.0952 18.7183 26.9752C19.3527 26.7611 19.9045 26.3545 20.2968 25.812C20.689 25.2694 20.9022 24.618 20.9067 23.9485V9.59016C20.9067 9.43132 20.9696 9.27896 21.0818 9.16649C21.194 9.05401 21.3461 8.9906 21.505 8.99016H23.8633C24.0166 8.99035 24.1639 9.04916 24.2752 9.15453C24.3864 9.25989 24.4531 9.40383 24.4617 9.55683C24.5476 10.2922 24.7812 11.0027 25.1483 11.6456C25.5155 12.2886 26.0087 12.8507 26.5983 13.2985C27.3951 13.8966 28.3415 14.2634 29.3333 14.3585C29.4819 14.3712 29.6208 14.4373 29.7244 14.5445C29.8279 14.6518 29.8891 14.7929 29.8967 14.9418L29.8983 16.1885Z" fill="white"/>
</g>
</svg>
