<svg xmlns="http://www.w3.org/2000/svg" xmlns:xlink="http://www.w3.org/1999/xlink" width="1080" height="1080" viewBox="0 0 1080 1080"><defs><style>.cls-1{mix-blend-mode:hue;fill:url(#linear-gradient)}.cls-2{fill:#fff;fill-rule:evenodd}</style><linearGradient id="linear-gradient" x1="925" x2="155" y1="925" y2="155" gradientUnits="userSpaceOnUse"><stop offset="0" stop-color="#0ce616"/><stop offset="1" stop-color="#ff7c00"/></linearGradient></defs><path d="M295,155H925a0,0,0,0,1,0,0V785A140,140,0,0,1,785,925H155a0,0,0,0,1,0,0V295A140,140,0,0,1,295,155Z" class="cls-1"/><path id="VF" d="M362.367,715L513.941,440.02q11.676-21.579,21.959-28.057t28.819-6.475h10.41l6.938-39.355H416.013l-6.939,39.355h23.1q19.806,0,25.716,3.174t4.44,11.553a55.165,55.165,0,0,1-3.257,10.537,89.243,89.243,0,0,1-6.106,12.314l-101.7,185.1L318.7,447.129q-1.522-8.63-2.011-15.234a45.913,45.913,0,0,1,.317-11.172,15.384,15.384,0,0,1,8.514-11.553q7.123-3.678,21.852-3.682h26.914l6.939-39.355H198.669l-6.939,39.355h15.235q15.739,0,23.248,7.11T241.171,439l49.087,276h72.109Zm339.251,0,6.982-39.609H684.225q-23.364,0-28.088-5.586t-1.008-26.661l15.937-90.39h9.394q32.243,0,40.224,13.076t2.337,58.018l39.566,0.254L793.436,449.16l-39.657.254q-9.7,40.628-21.851,51.924t-44.9,11.3h-8.887l18.9-107.149h65q34.784,0,50.976,6.094t21.344,20.059q4.987,13.461,5.165,32.627t-4.614,46.337h40.118L900.5,366.133H576.005l-6.938,39.355h20.312q23.1,0,27.727,5.459t0.861,26.787L581.75,643.144q-3.76,21.329-10.311,26.788t-29.655,5.459H521.471L514.489,715H701.618Z" class="cls-2"/></svg>